<mxfile host="app.diagrams.net" modified="2020-11-06T10:13:04.555Z" agent="5.0 (Windows NT 10.0; Win64; x64) AppleWebKit/537.36 (KHTML, like Gecko) Chrome/78.0.3904.87 Safari/537.36" etag="Ug2SG3EZbj_9lLPF3DLr" version="13.9.1" type="github">
  <diagram id="C5RBs43oDa-KdzZeNtuy" name="Page-1">
    <mxGraphModel dx="1128" dy="684" grid="1" gridSize="10" guides="1" tooltips="1" connect="1" arrows="1" fold="1" page="1" pageScale="1" pageWidth="827" pageHeight="1169" math="0" shadow="0">
      <root>
        <mxCell id="WIyWlLk6GJQsqaUBKTNV-0" />
        <mxCell id="WIyWlLk6GJQsqaUBKTNV-1" parent="WIyWlLk6GJQsqaUBKTNV-0" />
        <mxCell id="4uXqnYCCoOhngr09YbVr-2" value="" style="verticalLabelPosition=bottom;verticalAlign=top;html=1;strokeWidth=2;shape=mxgraph.arrows2.arrow;dy=0.6;dx=40;notch=0;rotation=90;" vertex="1" parent="WIyWlLk6GJQsqaUBKTNV-1">
          <mxGeometry x="59" y="204" width="90" height="50" as="geometry" />
        </mxCell>
        <mxCell id="4uXqnYCCoOhngr09YbVr-6" value="&lt;b&gt;&lt;font style=&quot;font-size: 20px&quot;&gt;sass&lt;/font&gt;&lt;/b&gt;" style="rounded=0;whiteSpace=wrap;html=1;strokeWidth=3;" vertex="1" parent="WIyWlLk6GJQsqaUBKTNV-1">
          <mxGeometry x="60" y="121" width="490" height="60" as="geometry" />
        </mxCell>
        <mxCell id="4uXqnYCCoOhngr09YbVr-7" value="erp" style="rounded=0;whiteSpace=wrap;html=1;strokeWidth=3;" vertex="1" parent="WIyWlLk6GJQsqaUBKTNV-1">
          <mxGeometry x="600" y="121" width="120" height="60" as="geometry" />
        </mxCell>
        <mxCell id="4uXqnYCCoOhngr09YbVr-10" value="" style="verticalLabelPosition=bottom;verticalAlign=top;html=1;strokeWidth=2;shape=mxgraph.arrows2.arrow;dy=0.6;dx=40;notch=0;rotation=90;" vertex="1" parent="WIyWlLk6GJQsqaUBKTNV-1">
          <mxGeometry x="354" y="204" width="90" height="50" as="geometry" />
        </mxCell>
        <mxCell id="4uXqnYCCoOhngr09YbVr-12" value="" style="verticalLabelPosition=bottom;verticalAlign=top;html=1;strokeWidth=2;shape=mxgraph.arrows2.arrow;dy=0.6;dx=40;notch=0;rotation=90;" vertex="1" parent="WIyWlLk6GJQsqaUBKTNV-1">
          <mxGeometry x="206" y="204" width="90" height="50" as="geometry" />
        </mxCell>
        <mxCell id="4uXqnYCCoOhngr09YbVr-14" value="云创（技术）" style="rounded=1;whiteSpace=wrap;html=1;strokeWidth=3;" vertex="1" parent="WIyWlLk6GJQsqaUBKTNV-1">
          <mxGeometry x="46" y="276" width="120" height="60" as="geometry" />
        </mxCell>
        <mxCell id="4uXqnYCCoOhngr09YbVr-16" value="云空间（物管）" style="rounded=1;whiteSpace=wrap;html=1;strokeWidth=3;" vertex="1" parent="WIyWlLk6GJQsqaUBKTNV-1">
          <mxGeometry x="334" y="276" width="120" height="60" as="geometry" />
        </mxCell>
        <mxCell id="4uXqnYCCoOhngr09YbVr-17" value="云链（供应链）" style="rounded=1;whiteSpace=wrap;html=1;strokeWidth=3;" vertex="1" parent="WIyWlLk6GJQsqaUBKTNV-1">
          <mxGeometry x="195" y="275" width="120" height="60" as="geometry" />
        </mxCell>
        <mxCell id="4uXqnYCCoOhngr09YbVr-19" value="" style="verticalLabelPosition=bottom;verticalAlign=top;html=1;strokeWidth=2;shape=mxgraph.arrows2.arrow;dy=0.6;dx=40;notch=0;rotation=90;" vertex="1" parent="WIyWlLk6GJQsqaUBKTNV-1">
          <mxGeometry x="486" y="203" width="90" height="50" as="geometry" />
        </mxCell>
        <mxCell id="4uXqnYCCoOhngr09YbVr-20" value="云客（售楼）" style="rounded=1;whiteSpace=wrap;html=1;strokeWidth=3;" vertex="1" parent="WIyWlLk6GJQsqaUBKTNV-1">
          <mxGeometry x="470" y="275" width="120" height="60" as="geometry" />
        </mxCell>
      </root>
    </mxGraphModel>
  </diagram>
</mxfile>
